<svg width="140" height="140" viewBox="0 0 140 140" fill="none" xmlns="http://www.w3.org/2000/svg">
<path d="M1.50755 40.2949C0.674953 36.8598 2.79574 33.3974 6.2309 32.5648C41.6994 23.9681 64.0632 18.5477 99.5317 9.95099C102.967 9.11839 106.438 11.2255 107.27 14.6607L118.58 61.3221L129.889 107.984C130.722 111.419 128.612 114.878 125.177 115.711L31.8541 138.33C28.419 139.163 24.9593 137.053 24.1267 133.618L1.50755 40.2949Z" fill="#42A5F5"/>
<path d="M19.6405 19.4491C19.2152 15.9402 21.7261 12.7495 25.2351 12.3241C61.4653 7.93239 84.3094 5.16328 120.54 0.771541C124.049 0.346197 127.249 2.84458 127.675 6.35352L133.452 54.017L139.23 101.681C139.655 105.19 137.155 108.379 133.647 108.804L38.3195 120.36C34.8105 120.785 31.6212 118.285 31.1958 114.776L19.6405 19.4491Z" fill="#F4F4F4"/>
<path d="M83.8842 91.0448L43.3708 72.5174L62.3924 63.1301L64.8627 26.8163L78.4495 43.8616L83.8842 91.0448Z" fill="#A0D5FF"/>
<path fill-rule="evenodd" clip-rule="evenodd" d="M65.1725 26.5694L68.5267 57.7628C69.4748 66.58 63.0956 74.4964 54.2783 75.4445C45.461 76.3926 37.5446 70.0134 36.5965 61.1961L36.0155 55.7926L45.8402 54.7361L46.4212 60.1397C46.7858 63.531 49.8306 65.9845 53.2219 65.6199C56.6131 65.2552 59.0667 62.2104 58.702 58.8192L55.3479 27.6259L65.1725 26.5694Z" fill="#42A5F5"/>
<path d="M88.2453 63.8418L103.551 41.5811L116.5 40.1887L98.7909 65.9448L121.571 87.3472L108.622 88.7395L88.9334 70.2418C87.1551 68.5711 86.8628 65.8524 88.2453 63.8418Z" fill="#2E4AF1"/>
<path d="M78.4825 44.2766L89.2896 43.1145L94.3605 90.273L83.5533 91.435L78.4825 44.2766Z" fill="#2E4AF1"/>
</svg>
